<svg xmlns="http://www.w3.org/2000/svg" width="850" height="240" viewBox="0 0 850 240" role="img" aria-label="Commits per day · last 90 days"><title>Commits per day · last 90 days</title><rect x="0.5" y="0.5" width="849" height="239" rx="8" fill="#0d1117" stroke="#30363d"/><text x="20" y="30" fill="#bc8cff" font-size="14" font-weight="600" font-family="Segoe UI, Ubuntu, sans-serif">Commits per day · last 90 days</text><line x1="45" y1="210.0" x2="830" y2="210.0" stroke="#21262d"/><text x="37" y="214.0" fill="#8b949e" font-size="11" text-anchor="end" font-family="Segoe UI, Ubuntu, sans-serif">0</text><line x1="45" y1="170.3" x2="830" y2="170.3" stroke="#21262d"/><text x="37" y="174.3" fill="#8b949e" font-size="11" text-anchor="end" font-family="Segoe UI, Ubuntu, sans-serif">34</text><line x1="45" y1="130.6" x2="830" y2="130.6" stroke="#21262d"/><text x="37" y="134.6" fill="#8b949e" font-size="11" text-anchor="end" font-family="Segoe UI, Ubuntu, sans-serif">68</text><line x1="45" y1="89.7" x2="830" y2="89.7" stroke="#21262d"/><text x="37" y="93.7" fill="#8b949e" font-size="11" text-anchor="end" font-family="Segoe UI, Ubuntu, sans-serif">103</text><line x1="45" y1="50.0" x2="830" y2="50.0" stroke="#21262d"/><text x="37" y="54.0" fill="#8b949e" font-size="11" text-anchor="end" font-family="Segoe UI, Ubuntu, sans-serif">137</text><text x="45.0" y="232" fill="#8b949e" font-size="11" text-anchor="middle" font-family="Segoe UI, Ubuntu, sans-serif">Jul 02</text><text x="177.3" y="232" fill="#8b949e" font-size="11" text-anchor="middle" font-family="Segoe UI, Ubuntu, sans-serif">Jul 17</text><text x="309.6" y="232" fill="#8b949e" font-size="11" text-anchor="middle" font-family="Segoe UI, Ubuntu, sans-serif">Aug 01</text><text x="441.9" y="232" fill="#8b949e" font-size="11" text-anchor="middle" font-family="Segoe UI, Ubuntu, sans-serif">Aug 16</text><text x="574.2" y="232" fill="#8b949e" font-size="11" text-anchor="middle" font-family="Segoe UI, Ubuntu, sans-serif">Aug 31</text><text x="706.5" y="232" fill="#8b949e" font-size="11" text-anchor="middle" font-family="Segoe UI, Ubuntu, sans-serif">Sep 15</text><polygon points="45,210 45.0,210.0 53.8,210.0 62.6,210.0 71.5,210.0 80.3,210.0 89.1,210.0 97.9,210.0 106.7,210.0 115.6,210.0 124.4,210.0 133.2,210.0 142.0,210.0 150.8,210.0 159.7,210.0 168.5,210.0 177.3,210.0 186.1,210.0 194.9,210.0 203.8,210.0 212.6,207.7 221.4,210.0 230.2,210.0 239.0,210.0 247.9,210.0 256.7,210.0 265.5,210.0 274.3,210.0 283.1,210.0 292.0,210.0 300.8,210.0 309.6,210.0 318.4,210.0 327.2,210.0 336.1,210.0 344.9,210.0 353.7,210.0 362.5,210.0 371.3,210.0 380.2,210.0 389.0,210.0 397.8,210.0 406.6,210.0 415.4,210.0 424.3,210.0 433.1,210.0 441.9,210.0 450.7,210.0 459.6,210.0 468.4,210.0 477.2,210.0 486.0,210.0 494.8,210.0 503.7,210.0 512.5,206.5 521.3,159.8 530.1,165.6 538.9,173.8 547.8,178.5 556.6,210.0 565.4,210.0 574.2,206.5 583.0,210.0 591.9,208.8 600.7,210.0 609.5,207.7 618.3,210.0 627.1,210.0 636.0,210.0 644.8,210.0 653.6,175.0 662.4,178.5 671.2,171.5 680.1,180.8 688.9,210.0 697.7,198.3 706.5,193.6 715.3,135.3 724.2,129.4 733.0,169.1 741.8,210.0 750.6,210.0 759.4,199.5 768.3,196.0 777.1,162.1 785.9,199.5 794.7,114.2 803.5,208.8 812.4,210.0 821.2,65.2 830.0,50.0 830,210" fill="#bc8cff" fill-opacity="0.15"/><polyline points="45.0,210.0 53.8,210.0 62.6,210.0 71.5,210.0 80.3,210.0 89.1,210.0 97.9,210.0 106.7,210.0 115.6,210.0 124.4,210.0 133.2,210.0 142.0,210.0 150.8,210.0 159.7,210.0 168.5,210.0 177.3,210.0 186.1,210.0 194.9,210.0 203.8,210.0 212.6,207.7 221.4,210.0 230.2,210.0 239.0,210.0 247.9,210.0 256.7,210.0 265.5,210.0 274.3,210.0 283.1,210.0 292.0,210.0 300.8,210.0 309.6,210.0 318.4,210.0 327.2,210.0 336.1,210.0 344.9,210.0 353.7,210.0 362.5,210.0 371.3,210.0 380.2,210.0 389.0,210.0 397.8,210.0 406.6,210.0 415.4,210.0 424.3,210.0 433.1,210.0 441.9,210.0 450.7,210.0 459.6,210.0 468.4,210.0 477.2,210.0 486.0,210.0 494.8,210.0 503.7,210.0 512.5,206.5 521.3,159.8 530.1,165.6 538.9,173.8 547.8,178.5 556.6,210.0 565.4,210.0 574.2,206.5 583.0,210.0 591.9,208.8 600.7,210.0 609.5,207.7 618.3,210.0 627.1,210.0 636.0,210.0 644.8,210.0 653.6,175.0 662.4,178.5 671.2,171.5 680.1,180.8 688.9,210.0 697.7,198.3 706.5,193.6 715.3,135.3 724.2,129.4 733.0,169.1 741.8,210.0 750.6,210.0 759.4,199.5 768.3,196.0 777.1,162.1 785.9,199.5 794.7,114.2 803.5,208.8 812.4,210.0 821.2,65.2 830.0,50.0" fill="none" stroke="#bc8cff" stroke-width="2" stroke-linejoin="round"/></svg>