<svg xmlns="http://www.w3.org/2000/svg" width="850" height="240" viewBox="0 0 850 240" role="img" aria-label="Commits per day · last 90 days"><title>Commits per day · last 90 days</title><rect x="0.5" y="0.5" width="849" height="239" rx="8" fill="#0d1117" stroke="#30363d"/><text x="20" y="30" fill="#bc8cff" font-size="14" font-weight="600" font-family="Segoe UI, Ubuntu, sans-serif">Commits per day · last 90 days</text><line x1="45" y1="210.0" x2="830" y2="210.0" stroke="#21262d"/><text x="37" y="214.0" fill="#8b949e" font-size="11" text-anchor="end" font-family="Segoe UI, Ubuntu, sans-serif">0</text><line x1="45" y1="169.8" x2="830" y2="169.8" stroke="#21262d"/><text x="37" y="173.8" fill="#8b949e" font-size="11" text-anchor="end" font-family="Segoe UI, Ubuntu, sans-serif">94</text><line x1="45" y1="130.0" x2="830" y2="130.0" stroke="#21262d"/><text x="37" y="134.0" fill="#8b949e" font-size="11" text-anchor="end" font-family="Segoe UI, Ubuntu, sans-serif">187</text><line x1="45" y1="90.2" x2="830" y2="90.2" stroke="#21262d"/><text x="37" y="94.2" fill="#8b949e" font-size="11" text-anchor="end" font-family="Segoe UI, Ubuntu, sans-serif">280</text><line x1="45" y1="50.0" x2="830" y2="50.0" stroke="#21262d"/><text x="37" y="54.0" fill="#8b949e" font-size="11" text-anchor="end" font-family="Segoe UI, Ubuntu, sans-serif">374</text><text x="45.0" y="232" fill="#8b949e" font-size="11" text-anchor="middle" font-family="Segoe UI, Ubuntu, sans-serif">Jul 06</text><text x="177.3" y="232" fill="#8b949e" font-size="11" text-anchor="middle" font-family="Segoe UI, Ubuntu, sans-serif">Jul 21</text><text x="309.6" y="232" fill="#8b949e" font-size="11" text-anchor="middle" font-family="Segoe UI, Ubuntu, sans-serif">Aug 05</text><text x="441.9" y="232" fill="#8b949e" font-size="11" text-anchor="middle" font-family="Segoe UI, Ubuntu, sans-serif">Aug 20</text><text x="574.2" y="232" fill="#8b949e" font-size="11" text-anchor="middle" font-family="Segoe UI, Ubuntu, sans-serif">Sep 04</text><text x="706.5" y="232" fill="#8b949e" font-size="11" text-anchor="middle" font-family="Segoe UI, Ubuntu, sans-serif">Sep 19</text><polygon points="45,210 45.0,210.0 53.8,210.0 62.6,210.0 71.5,210.0 80.3,210.0 89.1,210.0 97.9,210.0 106.7,210.0 115.6,210.0 124.4,210.0 133.2,210.0 142.0,210.0 150.8,210.0 159.7,210.0 168.5,210.0 177.3,209.1 186.1,210.0 194.9,210.0 203.8,210.0 212.6,210.0 221.4,210.0 230.2,210.0 239.0,210.0 247.9,210.0 256.7,210.0 265.5,210.0 274.3,210.0 283.1,210.0 292.0,210.0 300.8,210.0 309.6,210.0 318.4,210.0 327.2,210.0 336.1,210.0 344.9,210.0 353.7,210.0 362.5,210.0 371.3,210.0 380.2,210.0 389.0,210.0 397.8,210.0 406.6,210.0 415.4,210.0 424.3,210.0 433.1,210.0 441.9,210.0 450.7,210.0 459.6,210.0 468.4,210.0 477.2,208.7 486.0,191.6 494.8,193.7 503.7,196.7 512.5,198.4 521.3,210.0 530.1,210.0 538.9,208.7 547.8,210.0 556.6,209.6 565.4,210.0 574.2,209.1 583.0,210.0 591.9,210.0 600.7,210.0 609.5,210.0 618.3,197.2 627.1,198.4 636.0,196.7 644.8,202.3 653.6,210.0 662.4,207.4 671.2,204.4 680.1,192.9 688.9,187.8 697.7,196.7 706.5,210.0 715.3,210.0 724.2,206.1 733.0,207.4 741.8,192.5 750.6,206.1 759.4,174.5 768.3,209.1 777.1,210.0 785.9,166.8 794.7,50.0 803.5,159.1 812.4,210.0 821.2,210.0 830.0,210.0 830,210" fill="#bc8cff" fill-opacity="0.15"/><polyline points="45.0,210.0 53.8,210.0 62.6,210.0 71.5,210.0 80.3,210.0 89.1,210.0 97.9,210.0 106.7,210.0 115.6,210.0 124.4,210.0 133.2,210.0 142.0,210.0 150.8,210.0 159.7,210.0 168.5,210.0 177.3,209.1 186.1,210.0 194.9,210.0 203.8,210.0 212.6,210.0 221.4,210.0 230.2,210.0 239.0,210.0 247.9,210.0 256.7,210.0 265.5,210.0 274.3,210.0 283.1,210.0 292.0,210.0 300.8,210.0 309.6,210.0 318.4,210.0 327.2,210.0 336.1,210.0 344.9,210.0 353.7,210.0 362.5,210.0 371.3,210.0 380.2,210.0 389.0,210.0 397.8,210.0 406.6,210.0 415.4,210.0 424.3,210.0 433.1,210.0 441.9,210.0 450.7,210.0 459.6,210.0 468.4,210.0 477.2,208.7 486.0,191.6 494.8,193.7 503.7,196.7 512.5,198.4 521.3,210.0 530.1,210.0 538.9,208.7 547.8,210.0 556.6,209.6 565.4,210.0 574.2,209.1 583.0,210.0 591.9,210.0 600.7,210.0 609.5,210.0 618.3,197.2 627.1,198.4 636.0,196.7 644.8,202.3 653.6,210.0 662.4,207.4 671.2,204.4 680.1,192.9 688.9,187.8 697.7,196.7 706.5,210.0 715.3,210.0 724.2,206.1 733.0,207.4 741.8,192.5 750.6,206.1 759.4,174.5 768.3,209.1 777.1,210.0 785.9,166.8 794.7,50.0 803.5,159.1 812.4,210.0 821.2,210.0 830.0,210.0" fill="none" stroke="#bc8cff" stroke-width="2" stroke-linejoin="round"/></svg>