<svg xmlns="http://www.w3.org/2000/svg" width="850" height="240" viewBox="0 0 850 240" role="img" aria-label="Commits per day · last 90 days"><title>Commits per day · last 90 days</title><rect x="0.5" y="0.5" width="849" height="239" rx="8" fill="#0d1117" stroke="#30363d"/><text x="20" y="30" fill="#bc8cff" font-size="14" font-weight="600" font-family="Segoe UI, Ubuntu, sans-serif">Commits per day · last 90 days</text><line x1="45" y1="210.0" x2="830" y2="210.0" stroke="#21262d"/><text x="37" y="214.0" fill="#8b949e" font-size="11" text-anchor="end" font-family="Segoe UI, Ubuntu, sans-serif">0</text><line x1="45" y1="169.8" x2="830" y2="169.8" stroke="#21262d"/><text x="37" y="173.8" fill="#8b949e" font-size="11" text-anchor="end" font-family="Segoe UI, Ubuntu, sans-serif">94</text><line x1="45" y1="130.0" x2="830" y2="130.0" stroke="#21262d"/><text x="37" y="134.0" fill="#8b949e" font-size="11" text-anchor="end" font-family="Segoe UI, Ubuntu, sans-serif">187</text><line x1="45" y1="90.2" x2="830" y2="90.2" stroke="#21262d"/><text x="37" y="94.2" fill="#8b949e" font-size="11" text-anchor="end" font-family="Segoe UI, Ubuntu, sans-serif">280</text><line x1="45" y1="50.0" x2="830" y2="50.0" stroke="#21262d"/><text x="37" y="54.0" fill="#8b949e" font-size="11" text-anchor="end" font-family="Segoe UI, Ubuntu, sans-serif">374</text><text x="45.0" y="232" fill="#8b949e" font-size="11" text-anchor="middle" font-family="Segoe UI, Ubuntu, sans-serif">Jul 11</text><text x="177.3" y="232" fill="#8b949e" font-size="11" text-anchor="middle" font-family="Segoe UI, Ubuntu, sans-serif">Jul 26</text><text x="309.6" y="232" fill="#8b949e" font-size="11" text-anchor="middle" font-family="Segoe UI, Ubuntu, sans-serif">Aug 10</text><text x="441.9" y="232" fill="#8b949e" font-size="11" text-anchor="middle" font-family="Segoe UI, Ubuntu, sans-serif">Aug 25</text><text x="574.2" y="232" fill="#8b949e" font-size="11" text-anchor="middle" font-family="Segoe UI, Ubuntu, sans-serif">Sep 09</text><text x="706.5" y="232" fill="#8b949e" font-size="11" text-anchor="middle" font-family="Segoe UI, Ubuntu, sans-serif">Sep 24</text><polygon points="45,210 45.0,210.0 53.8,210.0 62.6,210.0 71.5,210.0 80.3,210.0 89.1,210.0 97.9,210.0 106.7,210.0 115.6,210.0 124.4,210.0 133.2,209.1 142.0,210.0 150.8,210.0 159.7,210.0 168.5,210.0 177.3,210.0 186.1,210.0 194.9,210.0 203.8,210.0 212.6,210.0 221.4,210.0 230.2,210.0 239.0,210.0 247.9,210.0 256.7,210.0 265.5,210.0 274.3,210.0 283.1,210.0 292.0,210.0 300.8,210.0 309.6,210.0 318.4,210.0 327.2,210.0 336.1,210.0 344.9,210.0 353.7,210.0 362.5,210.0 371.3,210.0 380.2,210.0 389.0,210.0 397.8,210.0 406.6,210.0 415.4,210.0 424.3,210.0 433.1,208.7 441.9,191.6 450.7,193.7 459.6,196.7 468.4,198.4 477.2,210.0 486.0,210.0 494.8,208.7 503.7,210.0 512.5,209.6 521.3,210.0 530.1,209.1 538.9,210.0 547.8,210.0 556.6,210.0 565.4,210.0 574.2,197.2 583.0,198.4 591.9,196.7 600.7,202.3 609.5,210.0 618.3,207.4 627.1,204.4 636.0,192.9 644.8,187.8 653.6,196.7 662.4,210.0 671.2,210.0 680.1,206.1 688.9,207.4 697.7,192.5 706.5,206.1 715.3,174.5 724.2,209.1 733.0,210.0 741.8,166.8 750.6,50.0 759.4,154.8 768.3,210.0 777.1,210.0 785.9,209.1 794.7,209.6 803.5,209.6 812.4,202.7 821.2,199.7 830.0,209.6 830,210" fill="#bc8cff" fill-opacity="0.15"/><polyline points="45.0,210.0 53.8,210.0 62.6,210.0 71.5,210.0 80.3,210.0 89.1,210.0 97.9,210.0 106.7,210.0 115.6,210.0 124.4,210.0 133.2,209.1 142.0,210.0 150.8,210.0 159.7,210.0 168.5,210.0 177.3,210.0 186.1,210.0 194.9,210.0 203.8,210.0 212.6,210.0 221.4,210.0 230.2,210.0 239.0,210.0 247.9,210.0 256.7,210.0 265.5,210.0 274.3,210.0 283.1,210.0 292.0,210.0 300.8,210.0 309.6,210.0 318.4,210.0 327.2,210.0 336.1,210.0 344.9,210.0 353.7,210.0 362.5,210.0 371.3,210.0 380.2,210.0 389.0,210.0 397.8,210.0 406.6,210.0 415.4,210.0 424.3,210.0 433.1,208.7 441.9,191.6 450.7,193.7 459.6,196.7 468.4,198.4 477.2,210.0 486.0,210.0 494.8,208.7 503.7,210.0 512.5,209.6 521.3,210.0 530.1,209.1 538.9,210.0 547.8,210.0 556.6,210.0 565.4,210.0 574.2,197.2 583.0,198.4 591.9,196.7 600.7,202.3 609.5,210.0 618.3,207.4 627.1,204.4 636.0,192.9 644.8,187.8 653.6,196.7 662.4,210.0 671.2,210.0 680.1,206.1 688.9,207.4 697.7,192.5 706.5,206.1 715.3,174.5 724.2,209.1 733.0,210.0 741.8,166.8 750.6,50.0 759.4,154.8 768.3,210.0 777.1,210.0 785.9,209.1 794.7,209.6 803.5,209.6 812.4,202.7 821.2,199.7 830.0,209.6" fill="none" stroke="#bc8cff" stroke-width="2" stroke-linejoin="round"/></svg>